<?xml version="1.0" encoding="UTF-8"?>
<svg version="1.1" xmlns="http://www.w3.org/2000/svg" width="1306" height="1270">
<path d="M0 0 C430.98 0 861.96 0 1306 0 C1306 419.1 1306 838.2 1306 1270 C875.02 1270 444.04 1270 0 1270 C0 850.9 0 431.8 0 0 Z " fill="#0B1E59" transform="translate(0,0)"/>
<path d="M0 0 C0.73530315 -0.00621683 1.47060631 -0.01243366 2.22819138 -0.01883888 C7.8513184 -0.06466256 13.47436793 -0.08761975 19.09765625 -0.1015625 C19.92808315 -0.10401096 20.75851006 -0.10645943 21.61410141 -0.10898209 C46.32238415 -0.17144767 70.84629885 0.54760685 95.47265625 2.5859375 C96.77186005 2.69262756 98.07106384 2.79931763 99.40963745 2.90924072 C140.9227554 6.39954091 183.39471732 12.41377679 223.16015625 25.2734375 C224.47944102 25.69547249 225.79878125 26.11733413 227.11816406 26.5390625 C255.37861032 35.60175897 282.59206399 45.95319506 309.16015625 59.2734375 C310.02898438 59.7065625 310.8978125 60.1396875 311.79296875 60.5859375 C333.95623051 71.70230704 355.13098546 85.34982738 374.16015625 101.2734375 C375.16175781 102.10230469 376.16335938 102.93117188 377.1953125 103.78515625 C391.73131121 115.88826937 406.12864158 128.65037651 417.92578125 143.48046875 C420.21489496 146.34186089 422.5886565 149.11583907 424.97265625 151.8984375 C434.43597233 163.25735571 442.69975706 175.51144863 450.04492188 188.33251953 C451.19904842 190.34112417 452.37503977 192.33601602 453.55078125 194.33203125 C469.25182418 221.36305115 488.16015625 260.38505293 488.16015625 292.2734375 C486.99556885 292.44472168 485.83098145 292.61600586 484.63110352 292.79248047 C480.27514248 293.43403343 475.91983223 294.07991586 471.56469727 294.72705078 C469.68628906 295.00556058 467.8077106 295.28292484 465.92895508 295.55908203 C463.215192 295.95818603 460.50208528 296.3615229 457.7890625 296.765625 C456.9605629 296.8865451 456.13206329 297.00746521 455.27845764 297.13204956 C450.50357204 297.84798943 445.81243098 298.74014162 441.11082458 299.84088135 C438.31268747 300.46136173 435.50489942 300.81010639 432.66015625 301.1484375 C426.05256688 301.98514632 419.48430107 302.99635876 412.91015625 304.0625 C410.67647529 304.42230482 408.44274958 304.7818319 406.20898438 305.14111328 C405.05148682 305.32740295 403.89398926 305.51369263 402.70141602 305.70562744 C396.84550514 306.64457158 390.98726054 307.56863079 385.12890625 308.4921875 C383.94389526 308.67911163 382.75888428 308.86603577 381.53796387 309.05862427 C376.70065798 309.82150054 371.86326598 310.58383012 367.02587891 311.34619141 C353.55557312 313.46945538 340.08682888 315.60161423 326.62216187 317.76036072 C313.84655829 319.80702374 301.06568806 321.82032417 288.28515625 323.8359375 C285.81379818 324.22588672 283.342444 324.61586062 280.87109375 325.00585938 C272.1232782 326.38625832 263.37544347 327.76653542 254.62744141 329.14575195 C246.83645346 330.37444092 239.0462798 331.60768782 231.25878906 332.85839844 C227.14008495 333.5198258 223.02069801 334.17696151 218.90136719 334.83447266 C216.55219655 335.21065798 214.20372105 335.59079412 211.85546875 335.97265625 C210.15003906 336.24529297 210.15003906 336.24529297 208.41015625 336.5234375 C207.02570313 336.74773437 207.02570313 336.74773437 205.61328125 336.9765625 C203.10436183 337.28018969 200.68482113 337.32792667 198.16015625 337.2734375 C197.6496875 335.6028125 197.6496875 335.6028125 197.12890625 333.8984375 C190.1999783 311.83014307 179.57444517 291.73815434 163.16015625 275.2734375 C162.31839844 274.42523438 161.47664062 273.57703125 160.609375 272.703125 C143.47599873 255.70637853 123.76090023 245.20269012 101.16015625 237.2734375 C100.18046875 236.90476562 99.20078125 236.53609375 98.19140625 236.15625 C92.07928754 233.94146541 85.89097435 232.4584246 79.53515625 231.1484375 C78.77879883 230.98972168 78.02244141 230.83100586 77.24316406 230.66748047 C61.83091922 227.65038602 46.38717294 226.86622035 30.72265625 226.8984375 C29.81105743 226.89831665 28.89945862 226.8981958 27.9602356 226.89807129 C12.37515601 226.92733042 -2.53745599 228.14308856 -17.83984375 231.2734375 C-18.65050293 231.42828613 -19.46116211 231.58313477 -20.29638672 231.74267578 C-48.44610504 237.16370279 -80.22690206 250.47245491 -97.71484375 274.1484375 C-107.96567874 289.99972869 -112.79403091 308.40075703 -108.92578125 327.08984375 C-103.72960863 349.37996741 -91.83224232 366.85619356 -72.6015625 379.3828125 C-29.30303743 405.1521769 23.87170866 410.43530256 72.56445312 419.24414062 C73.44576904 419.40358154 74.32708496 419.56302246 75.23510742 419.72729492 C77.02394601 420.05071276 78.81284619 420.37379013 80.60180664 420.6965332 C96.78156962 423.61749447 112.92450084 426.7155668 129.06463623 429.84725952 C145.53204957 433.03923976 162.02150756 436.08054459 178.53515625 439.0234375 C250.93631674 451.95473605 250.93631674 451.95473605 284.12353516 462.625 C286.01805836 463.22819511 287.92279832 463.79903897 289.828125 464.3671875 C357.92785916 484.80440675 431.09382606 518.37098332 473.16015625 578.2734375 C473.63855957 578.95051758 474.11696289 579.62759766 474.60986328 580.32519531 C486.27054077 596.97689699 495.91323804 614.2653248 503.16015625 633.2734375 C503.43311523 633.98902832 503.70607422 634.70461914 503.98730469 635.44189453 C515.88457971 667.31747379 518.39659795 699.95117807 518.53515625 733.6484375 C518.547211 735.28410675 518.547211 735.28410675 518.55950928 736.95281982 C518.68007344 758.52812108 516.54937931 779.51476633 511.59765625 800.5234375 C511.42719788 801.2566925 511.2567395 801.98994751 511.08111572 802.74542236 C499.32227656 852.89898921 474.00580867 897.58447663 439.16015625 935.2734375 C438.24266677 936.28180404 437.32604636 937.2909618 436.41015625 938.30078125 C429.75645236 945.6251803 423.06086898 952.76777761 415.546875 959.22265625 C413.76626764 960.75263802 412.00033607 962.29973086 410.2421875 963.85546875 C382.75425604 988.03474441 351.77564383 1006.86443932 319.16015625 1023.2734375 C318.32790527 1023.69689453 317.4956543 1024.12035156 316.63818359 1024.55664062 C282.06879806 1042.05275634 243.81897068 1055.69347035 206.06884772 1064.35941964 C203.14949307 1065.03061065 200.24873666 1065.76095749 197.34640449 1066.50207013 C182.69064112 1070.11097024 168.88908768 1070.97526097 153.84376526 1070.87471008 C151.37378077 1070.87689602 148.90379743 1070.88128408 146.43382019 1070.88765591 C141.10822021 1070.89643608 135.7829786 1070.88999863 130.45743561 1070.86946487 C122.53889278 1070.83901916 114.62052414 1070.83781062 106.70193344 1070.84217482 C93.37523082 1070.84871216 80.04865308 1070.83216051 66.72198677 1070.80208778 C53.54194073 1070.77242269 40.36194679 1070.75324199 27.1818676 1070.74782372 C25.94900414 1070.74730817 25.94900414 1070.74730817 24.69123434 1070.74678221 C20.51655376 1070.74509036 16.34187313 1070.74358351 12.16719245 1070.74214783 C-17.3416173 1070.73166772 -46.85035925 1070.6980425 -76.35913086 1070.65063477 C-105.01244753 1070.60465477 -133.66574559 1070.56926511 -162.3190918 1070.5480957 C-163.20353591 1070.54743807 -164.08798002 1070.54678044 -164.99922546 1070.54610288 C-173.88181363 1070.53950984 -182.76440193 1070.53313083 -191.64699036 1070.52690859 C-209.73911293 1070.5142302 -227.83123429 1070.50012394 -245.9233551 1070.4851532 C-246.75505785 1070.48446675 -247.58676061 1070.4837803 -248.44366647 1070.48307305 C-303.90908731 1070.43713083 -359.3744697 1070.35780753 -414.83984375 1070.2734375 C-415.04559034 988.82729849 -415.23637415 907.38112805 -415.34796143 825.93479919 C-415.34961811 824.72869581 -415.3512748 823.52259243 -415.35298168 822.27994045 C-415.3888995 796.06585779 -415.42214127 769.85177236 -415.4526277 743.63768283 C-415.46759528 730.78164797 -415.48315399 717.92561385 -415.49902344 705.06958008 C-415.50059255 703.79027402 -415.50216165 702.51096797 -415.50377831 701.19289507 C-415.55488257 659.75298176 -415.6449943 618.31326525 -415.7554104 576.87347109 C-415.8687039 534.27623985 -415.94249276 491.67911746 -415.96682363 449.08173812 C-415.97028131 443.06033528 -415.97418895 437.03893282 -415.97837067 431.01753044 C-415.97917974 429.8324729 -415.97998882 428.64741537 -415.98082241 427.426447 C-415.99498378 408.3770856 -416.05058804 389.3280615 -416.12182816 370.27883746 C-416.19262025 351.11158628 -416.21942342 331.9446683 -416.20186028 312.77729107 C-416.1927574 301.39986193 -416.21684571 290.02365566 -416.28941427 278.64644816 C-416.33465569 271.0307391 -416.33564046 263.41582403 -416.30182551 255.80005859 C-416.28383207 251.47010684 -416.28394906 247.14245476 -416.33844194 242.81275684 C-416.58938652 221.6383667 -414.14098254 205.82478101 -402.83984375 187.2734375 C-401.82549695 185.52402433 -400.81438687 183.77272946 -399.80690646 182.01935297 C-382.65513434 152.3350934 -358.84456726 124.36741441 -331.83984375 103.2734375 C-330.68804682 102.33454951 -329.53843649 101.39297487 -328.390625 100.44921875 C-293.04639817 71.5052513 -251.65029328 50.71137838 -208.83984375 35.2734375 C-207.7828125 34.8909082 -206.72578125 34.50837891 -205.63671875 34.11425781 C-165.69167496 19.82903331 -123.90282365 11.23513312 -81.83984375 6.2734375 C-79.58454132 5.99555432 -77.32933086 5.71692351 -75.07421875 5.4375 C-61.44339164 3.7772705 -47.79786834 2.48236702 -34.10099792 1.50662231 C-31.90952811 1.34992396 -29.71839704 1.18842102 -27.52761841 1.02233887 C-18.3493384 0.35806503 -9.20400748 0.06757859 0 0 Z " fill="#FEFEFE" transform="translate(414.83984375,199.7265625)"/>
<path d="M0 0 C2.7516998 3.66893307 4.7131191 7.28123544 6.6875 11.375 C16.18301228 30.61280306 27.69904848 47.9937583 42 64 C42.69440186 64.77899658 42.69440186 64.77899658 43.40283203 65.57373047 C51.7992638 74.95047102 60.35948625 83.89531959 70.2109375 91.765625 C71.98671659 93.18823794 73.74436759 94.63400394 75.4765625 96.109375 C88.53958181 107.19069788 103.12128758 116.55168326 118 125 C118.79180664 125.45197754 119.58361328 125.90395508 120.39941406 126.36962891 C181.39374576 160.98084972 249.21173204 177.15186459 317.5 190.14111328 C324.25396422 191.42745179 331.00171414 192.74575657 337.75 194.06149292 C341.49974843 194.79228903 345.24989396 195.5210416 349 196.25 C350.50000191 196.54165686 352.00000191 196.83332353 353.5 197.125 C354.2425 197.269375 354.985 197.41375 355.75 197.5625 C370 200.33333333 384.25 203.10416667 398.5 205.875 C399.24242447 206.01935989 399.98484894 206.16371979 400.74977112 206.31245422 C402.25053469 206.60427021 403.75129763 206.89608947 405.25205994 207.18791199 C408.99037205 207.91482079 412.72869501 208.6416737 416.46704102 209.3684082 C423.35648579 210.70777559 430.24583823 212.047611 437.13479614 213.38948059 C439.51137927 213.8523594 441.88801054 214.31499038 444.26464844 214.77758789 C447.35272492 215.37869005 450.44058896 215.98086792 453.52832031 216.58374023 C459.70798681 217.78882373 465.88752378 218.9901445 472.08203125 220.1171875 C509.88390906 226.99561691 551.76981767 237.32791023 580 265 C580.77214844 265.73605469 581.54429687 266.47210937 582.33984375 267.23046875 C594.16921005 279.30248872 600.19996002 295.2471248 600.3125 312 C600.00040163 334.36936161 591.95688634 351.55969369 576 367.125 C563.96934851 377.54591643 549.8662462 384.59573762 535 390 C533.15341797 390.69029297 533.15341797 390.69029297 531.26953125 391.39453125 C514.96383907 397.1792945 498.49234944 399.58690885 481.28564453 400.76635742 C478.97679445 400.9584195 478.97679445 400.9584195 476.66015625 401.51416016 C473.34201381 402.12017185 470.17814989 402.14803913 466.8046875 402.16796875 C466.10822617 402.17220352 465.41176483 402.17643829 464.69419861 402.18080139 C462.42107158 402.19071975 460.14814498 402.19071045 457.875 402.1875 C456.7040126 402.18659363 456.7040126 402.18659363 455.5093689 402.18566895 C400.46565744 402.07037796 347.11917916 391.9055855 306 353 C305.17886719 352.23171875 304.35773438 351.4634375 303.51171875 350.671875 C284.3401526 332.18607249 271.95532052 308.41022094 262 284 C261.52304687 282.83984375 261.04609375 281.6796875 260.5546875 280.484375 C258.32280344 274.89828805 256.79270081 269.98120775 256 264 C254.74062622 264.20363159 254.74062622 264.20363159 253.45581055 264.41137695 C225.2339735 268.97312543 225.2339735 268.97312543 214.75 270.625 C213.64845581 270.79866089 213.64845581 270.79866089 212.5246582 270.97583008 C208.75922016 271.5684718 204.99312718 272.15675052 201.2265625 272.7421875 C193.5523196 273.93916565 185.8931426 275.17982094 178.25 276.5625 C171.81232305 277.72382967 165.3684598 278.64812768 158.87890625 279.48046875 C152.2517011 280.36810046 145.65706569 281.45704552 139.05517578 282.51416016 C133.40958771 283.41193227 127.7608875 284.28990142 122.11260986 285.17056274 C111.17363048 286.876371 100.23542875 288.58692096 89.30078125 290.3203125 C86.27810013 290.79922179 83.2545572 291.27224843 80.23046875 291.7421875 C72.55481128 292.93854412 64.89442032 294.17958979 57.25 295.5625 C50.83440831 296.71984558 44.41341207 297.64478827 37.9453125 298.46875 C32.7184296 299.1725679 27.51520786 300.00497591 22.31103516 300.859375 C14.88588423 302.06283483 7.46937096 303.00408387 0 304 C0 203.68 0 103.36 0 0 Z " fill="#0B1E59" transform="translate(0,652)"/>
<path d="M0 0 C15.56028305 -0.48785963 30.02755021 0.52245207 45.18896484 4.08984375 C47.09162109 4.52296875 47.09162109 4.52296875 49.03271484 4.96484375 C69.02014425 10.09922928 87.78833599 20.4627567 103.18896484 34.08984375 C104.17638672 34.94449219 105.16380859 35.79914063 106.18115234 36.6796875 C115.59122705 44.94928333 123.4149051 54.23327857 130.43896484 64.58984375 C131.02121826 65.4420752 131.02121826 65.4420752 131.61523438 66.31152344 C132.86453262 68.20638953 134.02155058 70.14333552 135.18896484 72.08984375 C135.94387176 73.25366514 135.94387176 73.25366514 136.71402931 74.44099808 C142.22873642 83.89173605 142.00388527 92.47649981 141.87011719 103.07714844 C141.86842188 104.97051947 141.86938032 106.86389443 141.87277222 108.75726318 C141.87448426 113.86417911 141.839363 118.97023873 141.79732847 124.07695675 C141.75966188 129.4260358 141.75628359 134.7751374 141.74917603 140.12432861 C141.73057386 150.23891728 141.68139964 160.35311395 141.62107909 170.46753049 C141.5538696 181.98869487 141.52098868 193.50987858 141.49090648 205.0311904 C141.4282964 228.71762498 141.32285168 252.40371234 141.18896484 276.08984375 C116.09250253 276.32411811 90.99620564 276.50011545 65.89886761 276.60796547 C54.24397269 276.65938785 42.58975973 276.72941311 30.93530273 276.84423828 C20.76955435 276.9443477 10.60430017 277.00852868 0.4380725 277.0307287 C-4.93822765 277.04369297 -10.31311483 277.0738549 -15.68895912 277.14714432 C-20.76439359 277.21576799 -25.83785335 277.23581289 -30.91370773 277.22092056 C-32.7618902 277.22363893 -34.61014889 277.24308746 -36.4579258 277.2818985 C-61.06815006 277.77281769 -80.21210094 262.62987028 -97.50244141 246.3671875 C-100.83022447 243.08445057 -103.9073433 239.75446114 -106.81103516 236.08984375 C-107.20758301 235.59452148 -107.60413086 235.09919922 -108.01269531 234.58886719 C-116.03343816 224.46709982 -122.20391063 213.70520277 -127.81103516 202.08984375 C-128.48972656 200.68798828 -128.48972656 200.68798828 -129.18212891 199.2578125 C-132.53959669 191.58919931 -134.14525379 183.25961054 -135.81103516 175.08984375 C-135.96491699 174.34557129 -136.11879883 173.60129883 -136.27734375 172.83447266 C-143.68114565 135.8474796 -137.19208341 96.93285954 -116.81103516 65.08984375 C-111.39915234 57.22766104 -105.36345526 50.02028809 -98.81103516 43.08984375 C-98.11494141 42.34089844 -97.41884766 41.59195312 -96.70166016 40.8203125 C-73.81354915 16.97156909 -40.14000164 1.3209236 -7.01806641 0.15234375 C-6.37305176 0.14332031 -5.72803711 0.13429688 -5.06347656 0.125 C-3.37534243 0.09865149 -1.68747808 0.05393364 0 0 Z " fill="#F59D0B" transform="translate(1164.81103515625,993.91015625)"/>
<path d="M0 0 C2.35244184 2.9405523 4.57956794 5.74442522 6.69921875 8.8203125 C7.18132813 9.51471436 7.6634375 10.20911621 8.16015625 10.92456055 C8.66417969 11.65070557 9.16820312 12.37685059 9.6875 13.125 C14.51311127 20.00984133 19.55141781 26.59209479 25 33 C25.78503906 33.969375 26.57007812 34.93875 27.37890625 35.9375 C34.13336346 44.1837936 41.54920053 51.76428381 49.0625 59.3125 C49.56911163 59.82428802 50.07572327 60.33607605 50.59768677 60.8633728 C57.39497852 67.71534073 64.43705287 73.98495628 72 80 C73.02756057 80.86337571 74.05096064 81.73178251 75.06640625 82.609375 C134.27998921 133.39035069 211.60248534 162.13202633 287 178 C287 178.33 287 178.66 287 179 C192.29 179 97.58 179 0 179 C0 119.93 0 60.86 0 0 Z " fill="#0B1E59" transform="translate(0,1091)"/>
<path d="M0 0 C0.33 0 0.66 0 1 0 C1 24.09 1 48.18 1 73 C-23.42 73 -47.84 73 -73 73 C-70.43270879 71.28847253 -67.85911805 69.88485233 -65.11474609 68.48925781 C-51.07173936 61.28096502 -39.17383375 52.1131064 -28 41 C-27.51402344 40.51805176 -27.02804687 40.03610352 -26.52734375 39.53955078 C-15.04476382 27.99048453 -6.84586505 14.71180934 0 0 Z " fill="#0C1E58" transform="translate(1305,1197)"/>
</svg>
