<svg height="1270" width="1306" xmlns="http://www.w3.org/2000/svg"><path d="m0 0h1306v1270c-430.98 0-861.96 0-1306 0 0-419.1 0-838.2 0-1270z" fill="#0b1e59"/><path d="m0 0c.73530315-.00621683 1.47060631-.01243366 2.22819138-.01883888 5.62312702-.04582368 11.24617655-.06878087 16.86946487-.08272362.8304269-.00244846 1.66085381-.00489693 2.51644516-.00741959 24.70828274-.06246558 49.23219744.65658894 73.85855484 2.69491959 1.2992038.10669006 2.59840759.21338013 3.9369812.32330322 41.51311795 3.49030019 83.98507987 9.50453607 123.7505188 22.36419678 1.31928477.42203499 2.638625.84389663 3.95800781 1.265625 28.26044626 9.06269647 55.47389993 19.41413256 82.04199219 32.734375.86882813.433125 1.73765625.86625 2.6328125 1.3125 22.16326176 11.11636954 43.33801671 24.76388988 62.3671875 40.6875 1.00160156.82886719 2.00320313 1.65773438 3.03515625 2.51171875 14.53599871 12.10311312 28.93332908 24.86522026 40.73046875 39.6953125 2.28911371 2.86139214 4.66287525 5.63537032 7.046875 8.41796875 9.46331608 11.35891821 17.72710081 23.61301113 25.07226563 36.43408203 1.15412654 2.00860464 2.33011789 4.00349649 3.50585937 5.99951172 15.70104293 27.0310199 34.609375 66.05302168 34.609375 97.94140625-1.1645874.17128418-2.3291748.34256836-3.52905273.51904297-4.35596104.64155296-8.71127129 1.28743539-13.06640625 1.93457031-1.87840821.2785098-3.75698667.55587406-5.63574219.83203125-2.71376308.399104-5.4268698.80244087-8.13989258 1.20654297-.8284996.1209201-1.65699921.24184021-2.51060486.36642456-4.7748856.71593987-9.46602666 1.60809206-14.16763306 2.70883179-2.79813711.62048038-5.60592516.96922504-8.45066833 1.30755615-6.60758937.83670882-13.17585518 1.84792126-19.75 2.9140625-2.23368096.35980482-4.46740667.7193319-6.70117187 1.07861328-1.15749756.18628967-2.31499512.37257935-3.50756836.56451416-5.85591088.93894414-11.71415548 1.86300335-17.57250977 2.78656006-1.18501099.18692413-2.37002197.37384827-3.59094238.56643677-4.83730589.76287627-9.67469789 1.52520585-14.51208496 2.28756714-13.47030579 2.12326397-26.93905003 4.25542282-40.40371704 6.41416931-12.77560358 2.04666302-25.55647381 4.05996345-38.33700562 6.07557678-2.47135807.38994922-4.94271225.77992312-7.4140625 1.16992188-8.74781555 1.38039894-17.49565028 2.76067604-26.24365234 4.13989257-7.79098795 1.22868897-15.58116161 2.46193587-23.36865235 3.71264649-4.11870411.66142736-8.23809105 1.31856307-12.35742187 1.97607422-2.34917064.37618532-4.69764614.75632146-7.04589844 1.13818359-1.70542969.27263672-1.70542969.27263672-3.4453125.55078125-1.38445312.22429687-1.38445312.22429687-2.796875.453125-2.50891942.30362719-4.92846012.35136417-7.453125.296875-.51046875-1.670625-.51046875-1.670625-1.03125-3.375-6.92892795-22.06829443-17.55446108-42.16028316-33.96875-58.625-.84175781-.84820312-1.68351563-1.69640625-2.55078125-2.5703125-17.13337627-16.99674647-36.84847477-27.50043488-59.44921875-35.4296875-.9796875-.36867188-1.959375-.73734375-2.96875-1.1171875-6.11211871-2.21478459-12.3004319-3.6978254-18.65625-5.0078125-.75635742-.15871582-1.51271484-.31743164-2.29199219-.48095703-15.41224484-3.01709445-30.85599112-3.80126012-46.52050781-3.76904297-.91159882-.00012085-1.82319763-.0002417-2.76242065-.00036621-15.58507959.02925913-30.49769159 1.24501727-45.80007935 4.37536621-.81065918.15484863-1.62131836.30969727-2.45654297.46923828-28.14971832 5.42102701-59.93051534 18.72977913-77.41845703 42.40576172-10.25083499 15.85129119-15.07918716 34.25231953-11.2109375 52.94140625 5.19617262 22.29012366 17.09353893 39.76634981 36.32421875 52.29296875 43.29852507 25.7693644 96.47327116 31.05249006 145.16601562 39.86132812.88131592.15944092 1.76263184.31888184 2.6706543.4831543 1.78883859.32341784 3.57773877.64649521 5.36669922.96923828 16.17976298 2.92096127 32.3226942 6.0190336 48.46282959 9.15072632 16.46741334 3.19198024 32.95687133 6.23328507 49.47052002 9.17617798 72.40116049 12.93129855 72.40116049 12.93129855 105.58837891 23.6015625 1.8945232.60319511 3.79926316 1.17403897 5.70458984 1.7421875 68.09973416 20.43721925 141.26570106 54.00379582 183.33203125 113.90625.47840332.67708008.95680664 1.35416016 1.44970703 2.05175781 11.66067749 16.65170168 21.30337476 33.94012949 28.55029297 52.94824219.27295898.71559082.54591797 1.43118164.82714844 2.16845703 11.89727502 31.87557926 14.40929326 64.50928354 14.54785156 98.20654297.01205475 1.63566925.01205475 1.63566925.02435303 3.30438232.12056416 21.57530126-2.01012997 42.56194651-6.96185303 63.57061768-.17045837.733255-.34091675 1.46651001-.51654053 2.22198486-11.75883916 50.15356685-37.07530705 94.83905427-71.92095947 132.52801514-.91748948 1.00836654-1.83410989 2.0175243-2.75 3.02734375-6.65370389 7.32439905-13.34928727 14.46699636-20.86328125 20.921875-1.78060736 1.52998177-3.54653893 3.07707461-5.3046875 4.6328125-27.48793146 24.17927566-58.46654367 43.00897057-91.08203125 59.41796875-.83225098.42345703-1.66450195.84691406-2.52197266 1.28320312-34.56938553 17.49611572-72.81921291 31.13682973-110.56933587 39.80277902-2.91935465.67119101-5.82011106 1.40153785-8.72244323 2.14265049-14.65576337 3.60890011-28.45731681 4.47319084-43.50263923 4.37263995-2.46998449.00218594-4.93996783.006574-7.40994507.01294583-5.32559998.00878017-10.65084159.00234272-15.97638458-.01819104-7.91854283-.03044571-15.83691147-.03165425-23.75550217-.02729005-13.32670262.00653734-26.65328036-.01001431-39.97994667-.04008704-13.18004604-.02966509-26.36003998-.04884579-39.54011917-.05426406-1.23286346-.00051555-1.23286346-.00051555-2.49063326-.00104151-4.17468058-.00169185-8.34936121-.0031987-12.52404189-.00463438-29.50880975-.01048011-59.0175517-.04410533-88.52632331-.09151306-28.65331667-.04598-57.30661473-.08136966-85.95996094-.10253907-.88444411-.00065763-1.76888822-.00131526-2.68013366-.00199282-8.88258817-.00659304-17.76517647-.01297205-26.6477649-.01919429-18.09212257-.01267839-36.18424393-.02678465-54.27636474-.04175539-.83170275-.00068645-1.66340551-.0013729-2.52031137-.00208015-55.46542084-.04594222-110.93080323-.12526552-166.39617728-.20963555-.20574659-81.44613901-.3965304-162.89230945-.50811768-244.33863831-.00165668-1.20610338-.00331337-2.41220676-.00502025-3.65485874-.03591782-26.21408266-.06915959-52.42816809-.09964602-78.64225762-.01496758-12.85603486-.03052629-25.71206898-.04639574-38.56810275-.00156911-1.27930606-.00313821-2.55861211-.00475487-3.87668501-.05110426-41.43991331-.14121599-82.87962982-.25163209-124.31942398-.1132935-42.59723124-.18708236-85.19435363-.21141323-127.79173297-.00345768-6.02140284-.00736532-12.0428053-.01154704-18.06420768-.00080907-1.18505754-.00161815-2.37011507-.00245174-3.59108344-.01416137-19.0493614-.06976563-38.0983855-.14100575-57.14760954-.07079209-19.16725118-.09759526-38.33416916-.08003212-57.50154639.00910288-11.37742914-.01498543-22.75363541-.08755399-34.13084291-.04524142-7.61570906-.04622619-15.23062413-.01241124-22.84638957.01799344-4.32995175.01787645-8.65760383-.03661643-12.98730175-.25094458-21.17439014 2.1974594-36.98797583 13.49859819-55.53931934 1.0143468-1.74941317 2.02545688-3.50070804 3.03293729-5.25408453 17.15177212-29.68425957 40.9623392-57.65193856 67.96706271-78.74591547 1.15179693-.93888799 2.30140726-1.88046263 3.44921875-2.82421875 35.34422683-28.94396745 76.74033172-49.73784037 119.55078125-65.17578125 1.05703125-.3825293 2.1140625-.76505859 3.203125-1.15917969 39.94504379-14.2852245 81.7338951-22.87912469 123.796875-27.84082031 2.25530243-.27788318 4.51051289-.55651399 6.765625-.8359375 13.63082711-1.6602295 27.27635041-2.95513298 40.97322083-3.93087769 2.19146981-.15669835 4.38260088-.31820129 6.57337951-.48428344 9.17828001-.66427384 18.32361093-.95476028 27.52761841-1.02233887z" fill="#fefefe" transform="translate(414.839844 199.726563)"/><path d="m0 0c2.7516998 3.66893307 4.7131191 7.28123544 6.6875 11.375 9.49551228 19.23780306 21.01154848 36.6187583 35.3125 52.625.69440186.77899658.69440186.77899658 1.40283203 1.57373047 8.39643177 9.37674055 16.95665422 18.32158912 26.80810547 26.19189453 1.77577909 1.42261294 3.53343009 2.86837894 5.265625 4.34375 13.06301931 11.08132288 27.64472508 20.44230826 42.5234375 28.890625.79180664.45197754 1.58361328.90395508 2.39941406 1.36962891 60.9943317 34.61122081 128.81231798 50.78223568 197.10058594 63.77148437 6.75396422 1.28633851 13.50171414 2.60464329 20.25 3.92037964 3.74974843.73079611 7.49989396 1.45954868 11.25 2.18850708 1.50000191.29165686 3.00000191.58332353 4.5.875l2.25.4375c14.25 2.77083333 28.5 5.54166667 42.75 8.3125.74242447.14435989 1.48484894.28871979 2.24977112.43745422 1.50076357.29181599 3.00152651.58363525 4.50228882.87545777 3.73831211.7269088 7.47663507 1.45376171 11.21498108 2.18049621 6.88944477 1.33936739 13.77879721 2.6792028 20.66775512 4.02107239 2.37658313.46287881 4.7532144.92550979 7.1298523 1.3881073 3.08807648.60110216 6.17594052 1.20328003 9.26367187 1.80615234 6.1796665 1.2050835 12.35920347 2.40640427 18.55371094 3.53344727 37.80187781 6.87842941 79.68778642 17.21072273 107.91796875 44.8828125.77214844.73605469 1.54429687 1.47210937 2.33984375 2.23046875 11.8293663 12.07201997 17.86011627 28.01665605 17.97265625 44.76953125-.31209837 22.36936161-8.35561366 39.55969369-24.3125 55.125-12.03065149 10.42091643-26.1337538 17.47073762-41 22.875-1.84658203.69029297-1.84658203.69029297-3.73046875 1.39453125-16.30569218 5.78476325-32.77718181 8.1923776-49.98388672 9.37182617-2.30885008.19206208-2.30885008.19206208-4.62548828.74780274-3.31814244.60601169-6.48200636.63387897-9.85546875.65380859-.69646133.00423477-1.39292267.00846954-2.11048889.01283264-2.27312703.00991836-4.54605363.00990906-6.81919861.00669861-1.1709874-.00090637-1.1709874-.00090637-2.3656311-.00183105-55.04371146-.11529099-108.39018974-10.28008345-149.5093689-49.18566895-.82113281-.76828125-1.64226562-1.5365625-2.48828125-2.328125-19.17156615-18.48580251-31.55639823-42.26165406-41.51171875-66.671875-.47695313-1.16015625-.95390625-2.3203125-1.4453125-3.515625-2.23188406-5.58608695-3.76198669-10.50316725-4.5546875-16.484375-1.25937378.20363159-1.25937378.20363159-2.54418945.41137695-28.22183705 4.56174848-28.22183705 4.56174848-38.70581055 6.21362305-1.10154419.17366089-1.10154419.17366089-2.2253418.35083008-3.76543804.59264172-7.53153102 1.18092044-11.2980957 1.76635742-7.6742429 1.19697815-15.3334199 2.43763344-22.9765625 3.8203125-6.43767695 1.16132967-12.8815402 2.08562768-19.37109375 2.91796875-6.62720515.88763171-13.22184056 1.97657677-19.82373047 3.03369141-5.64558807.89777211-11.29428828 1.77574126-16.94256592 2.65640258-10.93897938 1.70580826-21.87718111 3.41635822-32.81182861 5.14974976-3.02268112.47890929-6.04622405.95193593-9.0703125 1.421875-7.67565747 1.19635662-15.33604843 2.43740229-22.98046875 3.8203125-6.41559169 1.15734558-12.83658793 2.08228827-19.3046875 2.90625-5.2268829.7038179-10.43010464 1.53622591-15.63427734 2.390625-7.42515093 1.20345983-14.8416642 2.14470887-22.31103516 3.140625 0-100.32 0-200.64 0-304z" fill="#0b1e59" transform="translate(0 652)"/><path d="m0 0c15.56028305-.48785963 30.02755021.52245207 45.18896484 4.08984375l3.84375.875c19.98742941 5.13438553 38.75562115 15.49791295 54.15625 29.125.98742188.85464844 1.97484375 1.70929688 2.9921875 2.58984375 9.41007471 8.26959583 17.23375276 17.55359107 24.2578125 27.91015625.58225342.85223145.58225342.85223145 1.17626954 1.72167969 1.24929824 1.89486609 2.4063162 3.83181208 3.57373046 5.77832031.75490692 1.16382139.75490692 1.16382139 1.52506447 2.35115433 5.51470711 9.45073797 5.28985596 18.03550173 5.15608788 28.63615036-.00169531 1.89337103-.00073687 3.78674599.00265503 5.68011474.00171204 5.10691593-.03340922 10.21297555-.07544375 15.31969357-.03766659 5.34907905-.04104488 10.69818065-.04815244 16.04737186-.01860217 10.11458867-.06777639 20.22878534-.12809694 30.34320188-.06720949 11.52116438-.10009041 23.04234809-.13017261 34.56365991-.06261008 23.68643458-.1680548 47.37252194-.30194164 71.05865335-25.09646231.23427436-50.1927592.4102717-75.29009723.51812172-11.65489492.05142238-23.30910788.12144764-34.96356488.23627281-10.16574838.10010942-20.33100256.1642904-30.49723023.18649042-5.37630015.01296427-10.75118733.0431262-16.12703162.11641562-5.07543447.06862367-10.14889423.08866857-15.22474861.07377624-1.84818247.00271837-3.69644116.0221669-5.54421807.06097794-24.61022426.49091919-43.75417514-14.65202822-61.04451561-30.914711-3.32778306-3.28273693-6.40490189-6.61272636-9.30859375-10.27734375-.39654785-.49532227-.7930957-.99064453-1.20166015-1.50097656-8.02074285-10.12176737-14.19121532-20.88366442-19.79833985-32.49902344-.6786914-1.40185547-.6786914-1.40185547-1.37109375-2.83203125-3.35746778-7.66861319-4.96312488-15.99820196-6.62890625-24.16796875-.15388183-.74427246-.30776367-1.48854492-.46630859-2.25537109-7.4038019-36.98699306-.91473966-75.90161312 19.46630859-107.74462891 5.41188282-7.86218271 11.4475799-15.06955566 18-22 .69609375-.74894531 1.3921875-1.49789063 2.109375-2.26953125 22.88811101-23.84874341 56.56165852-39.4993889 89.68359375-40.66796875.64501465-.00902344 1.2900293-.01804687 1.95458985-.02734375 1.68813413-.02634851 3.37599848-.07106636 5.06347656-.125z" fill="#f59d0b" transform="translate(1164.811035 993.910156)"/><path d="m0 0c2.35244184 2.9405523 4.57956794 5.74442522 6.69921875 8.8203125.48210938.69440186.96421875 1.38880371 1.4609375 2.10424805.50402344.72614502 1.00804687 1.45229004 1.52734375 2.20043945 4.82561127 6.88484133 9.86391781 13.46709479 15.3125 19.875.78503906.969375 1.57007812 1.93875 2.37890625 2.9375 6.75445721 8.2462936 14.17029428 15.82678381 21.68359375 23.375.50661163.51178802 1.01322327 1.02357605 1.53518677 1.5508728 6.79729175 6.85196793 13.8393661 13.12158348 21.40231323 19.1366272 1.02756057.86337571 2.05096064 1.73178251 3.06640625 2.609375 59.21358296 50.78097569 136.53607909 79.52265133 211.93359375 95.390625v1c-94.71 0-189.42 0-287 0 0-59.07 0-118.14 0-179z" fill="#0b1e59" transform="translate(0 1091)"/><path d="m0 0h1v73c-24.42 0-48.84 0-74 0 2.56729121-1.71152747 5.14088195-3.11514767 7.88525391-4.51074219 14.04300673-7.20829279 25.94091234-16.37615141 37.11474609-27.48925781.48597656-.48194824.97195313-.96389648 1.47265625-1.46044922 11.48257993-11.54906625 19.6814787-24.82774144 26.52734375-39.53955078z" fill="#0c1e58" transform="translate(1305 1197)"/></svg>